<svg width="31" height="31" viewBox="0 0 31 31" fill="none" xmlns="http://www.w3.org/2000/svg">
<path d="M11.948 28.4166L11.4313 24.2833C11.1514 24.1757 10.8877 24.0465 10.6402 23.8958C10.3926 23.7451 10.1504 23.5837 9.91359 23.4114L6.07088 25.026L2.5188 18.8906L5.84484 16.3719C5.82331 16.2212 5.81255 16.0758 5.81255 15.9359V15.064C5.81255 14.9241 5.82331 14.7788 5.84484 14.6281L2.5188 12.1094L6.07088 5.97394L9.91359 7.58852C10.1504 7.4163 10.398 7.25484 10.6563 7.10415C10.9146 6.95345 11.173 6.82429 11.4313 6.71665L11.948 2.58331H19.0521L19.5688 6.71665C19.8487 6.82429 20.1124 6.95345 20.3599 7.10415C20.6075 7.25484 20.8497 7.4163 21.0865 7.58852L24.9292 5.97394L28.4813 12.1094L25.1553 14.6281C25.1768 14.7788 25.1875 14.9241 25.1875 15.064V15.9359C25.1875 16.0758 25.166 16.2212 25.123 16.3719L28.449 18.8906L24.8969 25.026L21.0865 23.4114C20.8497 23.5837 20.6021 23.7451 20.3438 23.8958C20.0855 24.0465 19.8271 24.1757 19.5688 24.2833L19.0521 28.4166H11.948ZM15.5646 20.0208C16.8132 20.0208 17.8789 19.5795 18.7615 18.6969C19.6441 17.8142 20.0855 16.7486 20.0855 15.5C20.0855 14.2514 19.6441 13.1857 18.7615 12.3031C17.8789 11.4205 16.8132 10.9791 15.5646 10.9791C14.2945 10.9791 13.2235 11.4205 12.3516 12.3031C11.4797 13.1857 11.0438 14.2514 11.0438 15.5C11.0438 16.7486 11.4797 17.8142 12.3516 18.6969C13.2235 19.5795 14.2945 20.0208 15.5646 20.0208Z" fill="#373734"/>
</svg>
