<svg width="31" height="31" viewBox="0 0 31 31" fill="none" xmlns="http://www.w3.org/2000/svg">
<g clip-path="url(#clip0_831_158)">
<path d="M15.5 19.375C17.6401 19.375 19.375 17.6401 19.375 15.5C19.375 13.3599 17.6401 11.625 15.5 11.625C13.3599 11.625 11.625 13.3599 11.625 15.5C11.625 17.6401 13.3599 19.375 15.5 19.375Z" stroke="#1E1E1E" stroke-width="2.5" stroke-linecap="round" stroke-linejoin="round"/>
<path d="M25.0583 19.375C24.8864 19.7646 24.8351 20.1968 24.911 20.6158C24.987 21.0348 25.1868 21.4214 25.4845 21.7259L25.562 21.8034C25.8022 22.0433 25.9928 22.3282 26.1228 22.6418C26.2528 22.9554 26.3197 23.2916 26.3197 23.6311C26.3197 23.9706 26.2528 24.3067 26.1228 24.6203C25.9928 24.9339 25.8022 25.2188 25.562 25.4588C25.3221 25.699 25.0372 25.8895 24.7236 26.0195C24.41 26.1495 24.0738 26.2164 23.7343 26.2164C23.3948 26.2164 23.0587 26.1495 22.7451 26.0195C22.4315 25.8895 22.1465 25.699 21.9066 25.4588L21.8291 25.3813C21.5247 25.0835 21.1381 24.8837 20.7191 24.8078C20.3 24.7318 19.8679 24.7831 19.4783 24.955C19.0963 25.1188 18.7704 25.3906 18.5409 25.7372C18.3114 26.0837 18.1883 26.4898 18.1866 26.9054V27.125C18.1866 27.8102 17.9145 28.4672 17.43 28.9517C16.9455 29.4362 16.2884 29.7084 15.6033 29.7084C14.9181 29.7084 14.2611 29.4362 13.7766 28.9517C13.2921 28.4672 13.02 27.8102 13.02 27.125V27.0088C13.01 26.5812 12.8716 26.1666 12.6228 25.8188C12.374 25.4709 12.0263 25.206 11.625 25.0584C11.2354 24.8864 10.8032 24.8351 10.3842 24.9111C9.96519 24.9871 9.57854 25.1868 9.27413 25.4846L9.19663 25.5621C8.9567 25.8023 8.67179 25.9928 8.35818 26.1228C8.04457 26.2528 7.70841 26.3198 7.36892 26.3198C7.02943 26.3198 6.69327 26.2528 6.37965 26.1228C6.06604 25.9928 5.78113 25.8023 5.54121 25.5621C5.30102 25.3222 5.11048 25.0373 4.98047 24.7237C4.85047 24.41 4.78355 24.0739 4.78355 23.7344C4.78355 23.3949 4.85047 23.0587 4.98047 22.7451C5.11048 22.4315 5.30102 22.1466 5.54121 21.9067L5.61871 21.8292C5.91649 21.5248 6.11624 21.1381 6.19221 20.7191C6.26819 20.3001 6.2169 19.8679 6.04496 19.4784C5.88122 19.0963 5.60935 18.7705 5.26281 18.541C4.91627 18.3115 4.51018 18.1883 4.09454 18.1867H3.87496C3.18982 18.1867 2.53274 17.9145 2.04827 17.43C1.5638 16.9456 1.29163 16.2885 1.29163 15.6034C1.29163 14.9182 1.5638 14.2611 2.04827 13.7767C2.53274 13.2922 3.18982 13.02 3.87496 13.02H3.99121C4.41874 13.01 4.83338 12.8716 5.18122 12.6228C5.52906 12.3741 5.79401 12.0264 5.94163 11.625C6.11357 11.2354 6.16486 10.8033 6.08888 10.3843C6.01291 9.96525 5.81315 9.57861 5.51538 9.27419L5.43788 9.19669C5.19769 8.95676 5.00714 8.67185 4.87714 8.35824C4.74713 8.04463 4.68022 7.70847 4.68022 7.36898C4.68022 7.02949 4.74713 6.69333 4.87714 6.37972C5.00714 6.0661 5.19769 5.78119 5.43788 5.54127C5.6778 5.30108 5.96271 5.11054 6.27632 4.98053C6.58993 4.85053 6.92609 4.78361 7.26558 4.78361C7.60507 4.78361 7.94123 4.85053 8.25485 4.98053C8.56846 5.11054 8.85337 5.30108 9.09329 5.54127L9.17079 5.61877C9.47521 5.91655 9.86185 6.1163 10.2809 6.19228C10.6999 6.26825 11.132 6.21696 11.5216 6.04502H11.625C12.007 5.88128 12.3328 5.60941 12.5623 5.26287C12.7918 4.91633 12.915 4.51024 12.9166 4.0946V3.87502C12.9166 3.18988 13.1888 2.5328 13.6733 2.04833C14.1577 1.56386 14.8148 1.29169 15.5 1.29169C16.1851 1.29169 16.8422 1.56386 17.3267 2.04833C17.8111 2.5328 18.0833 3.18988 18.0833 3.87502V3.99127C18.0849 4.40691 18.2081 4.813 18.4376 5.15954C18.6671 5.50608 18.9929 5.77795 19.375 5.94169C19.7645 6.11363 20.1967 6.16492 20.6157 6.08894C21.0347 6.01297 21.4214 5.81321 21.7258 5.51544L21.8033 5.43794C22.0432 5.19775 22.3281 5.0072 22.6417 4.8772C22.9553 4.74719 23.2915 4.68028 23.631 4.68028C23.9705 4.68028 24.3067 4.74719 24.6203 4.8772C24.9339 5.0072 25.2188 5.19775 25.4587 5.43794C25.6989 5.67786 25.8894 5.96277 26.0194 6.27638C26.1495 6.58999 26.2164 6.92616 26.2164 7.26565C26.2164 7.60514 26.1495 7.9413 26.0194 8.25491C25.8894 8.56852 25.6989 8.85343 25.4587 9.09335L25.3812 9.17085C25.0834 9.47527 24.8837 9.86192 24.8077 10.2809C24.7317 10.6999 24.783 11.1321 24.955 11.5217V11.625C25.1187 12.0071 25.3906 12.3329 25.7371 12.5624C26.0836 12.7919 26.4897 12.915 26.9054 12.9167H27.125C27.8101 12.9167 28.4672 13.1889 28.9517 13.6733C29.4361 14.1578 29.7083 14.8149 29.7083 15.5C29.7083 16.1852 29.4361 16.8422 28.9517 17.3267C28.4672 17.8112 27.8101 18.0834 27.125 18.0834H27.0087C26.5931 18.085 26.187 18.2082 25.8404 18.4377C25.4939 18.6672 25.222 18.993 25.0583 19.375Z" stroke="#1E1E1E" stroke-width="2.5" stroke-linecap="round" stroke-linejoin="round"/>
</g>
<defs>
<clipPath id="clip0_831_158">
<rect width="31" height="31" fill="white"/>
</clipPath>
</defs>
</svg>
