<svg width="33" height="32" viewBox="0 0 33 32" fill="none" xmlns="http://www.w3.org/2000/svg">
<path d="M13.1695 0C20.4428 0 26.339 5.89618 26.339 13.1695C26.339 16.3122 25.2358 19.1958 23.3988 21.4598L32.1966 30.2704C32.5919 30.6663 32.5914 31.3086 32.1956 31.7039C31.7997 32.0991 31.1574 32.0987 30.7621 31.7029L22.0058 22.9338C19.6692 25.0497 16.57 26.339 13.1695 26.339C5.89618 26.339 0 20.4428 0 13.1695C0 5.89618 5.89618 0 13.1695 0ZM13.1695 2.02607C7.01514 2.02607 2.02607 7.01514 2.02607 13.1695C2.02607 19.3238 7.01514 24.3129 13.1695 24.3129C19.3238 24.3129 24.3129 19.3238 24.3129 13.1695C24.3129 7.01514 19.3238 2.02607 13.1695 2.02607Z" fill="#121212"/>
</svg>
